<svg width="1000" height="1000" viewBox="0 0 1000 1000" fill="none" xmlns="http://www.w3.org/2000/svg">
<path d="M106.897 683.711C128.708 683.711 141.795 701.157 141.795 718.607V805.851C141.795 832.026 163.606 858.197 194.142 858.197H281.386C298.834 858.197 316.284 871.283 316.284 893.094C316.284 914.905 298.834 927.995 281.386 927.995H194.142C124.346 927.995 72.0001 871.283 72 805.851V718.607C72 701.157 85.0864 683.711 106.897 683.711ZM892.106 683.711C909.553 683.711 927.003 701.157 927.003 718.607V805.851C927.003 875.648 870.296 927.995 804.863 927.995H717.615C695.804 927.995 682.719 914.905 682.719 893.094C682.719 871.283 700.169 858.197 717.615 858.197H804.863C831.035 858.197 857.206 836.387 857.206 805.851V718.607C857.206 696.797 874.656 683.711 892.106 683.711ZM281.386 73C298.834 73 316.284 86.0864 316.284 107.897C316.284 129.708 298.834 142.795 281.386 142.795H194.142C167.969 142.795 141.795 164.607 141.795 195.142V282.386C141.795 304.197 124.346 317.284 106.897 317.284C89.4485 317.284 72 299.834 72 282.386V195.142C72.0001 129.709 128.709 73.0001 194.142 73H281.386ZM804.863 73C870.296 73.0001 927.003 129.709 927.003 195.142V282.386C927.003 304.197 913.917 317.284 892.106 317.284C870.296 317.284 857.206 299.834 857.206 282.386V195.142C857.206 168.969 835.395 142.795 804.863 142.795H717.615C695.804 142.795 682.719 129.708 682.719 107.897C682.719 86.0864 700.169 73 717.615 73H804.863Z" fill="#63BBFF"/>
<path fill-rule="evenodd" clip-rule="evenodd" d="M712.46 371.341C736.384 390.642 750.103 412.453 753.115 437.333C778.824 432.368 811.729 436.049 826.061 446.034L825.838 445.98L838.999 454.068L836.601 459.032C832.418 468.348 831.247 470.859 830.634 472.086C807.267 518.777 761.257 519.391 739.731 518.777C685.356 655.113 569.357 730.42 412.702 730.42C340.37 730.42 285.382 707.438 248.296 661.975C199.498 602.23 199.497 524.411 203.68 499.531L204.851 494.566H637.115C653.934 494.994 670.588 491.156 685.524 483.41C678.313 471.957 674.005 458.917 672.975 445.422C671 421.07 676.632 396.705 689.093 375.692L698.685 361.355L712.46 371.341ZM265.457 523.086C256.021 523.086 248.372 530.735 248.372 540.171C248.372 549.606 256.021 557.255 265.457 557.255C274.892 557.255 282.541 549.606 282.541 540.171C282.541 530.735 274.892 523.086 265.457 523.086Z" fill="#605AFF"/>
<path d="M329.212 270.483H394.963V332.738H329.212V270.483ZM329.212 345.178H394.963V407.433H329.212V345.178ZM406.954 345.178H472.705V407.433H406.954V345.178ZM484.695 345.178H550.391V407.433H484.64V345.178H484.695ZM562.437 419.872H628.133V482.127H562.381V419.872H562.437ZM484.695 419.872H550.391V482.127H484.64V419.872H484.695ZM406.954 419.872H472.705V482.127H406.954V419.872ZM329.212 419.872H394.963V482.127H329.212V419.872ZM251.47 419.872H317.221V482.127H251.47V419.872Z" fill="#6F00FF"/>
</svg>
